<svg xmlns="http://www.w3.org/2000/svg" xmlns:xlink="http://www.w3.org/1999/xlink" width="196" height="196" viewBox="0 0 196 196">
  <defs>
    <clipPath id="a">
      <path d="M98.3333,128.8006c-25.7332,0-77.1033,12.9148-77.1033,38.5517v33.6464H175.4367V167.3523C175.4367,141.7154,124.0666,128.8006,98.3333,128.8006Zm0-19.2758A38.5517,38.5517,0,1,0,59.7817,70.9731,38.5411,38.5411,0,0,0,98.3333,109.5248Z" fill="#ccc" clip-rule="evenodd"/>
    </clipPath>
    <clipPath id="b">
      <rect x="-3718.2823" y="-931.3704" width="4857.5108" height="2081.7903" fill="#ccc"/>
    </clipPath>
  </defs>
  <title>logoArtboard 1</title>
  <rect x="-23.2283" y="-11.1152" width="253.7702" height="226.5157" fill="#333"/>
  <g>
    <path d="M98.3333,128.8006c-25.7332,0-77.1033,12.9148-77.1033,38.5517v33.6464H175.4367V167.3523C175.4367,141.7154,124.0666,128.8006,98.3333,128.8006Zm0-19.2758A38.5517,38.5517,0,1,0,59.7817,70.9731,38.5411,38.5411,0,0,0,98.3333,109.5248Z" fill="#ccc" fill-rule="evenodd"/>
    <g clip-path="url(#a)">
      <g>
        <rect x="-3718.2823" y="-931.3704" width="4857.5108" height="2081.7903" fill="#ccc"/>
        <g clip-path="url(#b)">
          <rect x="-26.9596" y="-15.7681" width="250.5859" height="250.5859" fill="#ccc"/>
        </g>
      </g>
    </g>
  </g>
</svg>
